<?xml version="1.0" standalone="no"?>
<!DOCTYPE svg PUBLIC "-//W3C//DTD SVG 20010904//EN"
 "http://www.w3.org/TR/2001/REC-SVG-20010904/DTD/svg10.dtd">
<svg version="1.0" xmlns="http://www.w3.org/2000/svg"
 width="166.000000pt" height="166.000000pt" viewBox="0 0 166.000000 166.000000"
 preserveAspectRatio="xMidYMid meet">
<metadata>
Created by potrace 1.16, written by Peter Selinger 2001-2019
</metadata>
<g transform="translate(0.000000,166.000000) scale(0.025938,-0.025938)"
fill="#000000" stroke="none">
<path d="M0 5725 l0 -675 72 4 c40 3 85 5 101 5 17 1 27 6 27 16 0 9 7 27 16
40 17 27 11 65 -11 65 -8 0 -19 9 -25 19 -6 13 -17 17 -30 14 -11 -3 -18 -8
-16 -12 2 -3 -7 -7 -20 -7 -30 -2 -31 8 -1 21 23 11 24 16 11 49 -6 16 -4 18
14 14 25 -7 30 7 7 16 -22 8 -19 26 4 26 11 0 22 4 25 9 9 15 -18 61 -36 61
-10 0 -18 6 -18 13 0 13 76 41 89 33 4 -3 13 6 19 19 15 32 -5 46 -27 18 -21
-25 -39 -19 -34 11 4 19 0 24 -24 29 -15 3 -37 13 -48 22 -19 15 -17 15 29 13
l49 -2 29 52 30 52 -31 17 c-33 19 -36 38 -5 38 26 0 30 31 5 47 -12 7 -21 17
-21 22 0 4 6 3 14 -3 15 -13 26 4 26 41 0 15 -5 19 -20 15 -26 -7 -27 19 -1
28 15 4 19 16 20 68 1 34 3 73 5 87 3 14 7 41 10 60 16 113 19 130 27 130 5 0
9 -9 9 -20 0 -14 5 -18 18 -13 9 3 14 3 11 -1 -4 -4 4 -19 18 -34 20 -22 26
-24 33 -12 6 8 10 20 10 25 2 57 10 154 14 170 2 11 5 29 5 40 1 16 3 17 10 5
6 -8 7 -18 5 -22 -3 -4 -1 -8 4 -8 5 0 13 15 17 33 7 31 7 31 14 7 6 -22 8
-23 14 -7 4 10 7 23 7 28 0 5 -95 9 -225 9 l-225 0 0 -675z"/>
<path d="M484 6258 c4 -79 10 -177 14 -218 l7 -75 7 60 c3 33 11 87 16 120 6
33 13 104 17 158 l6 97 -37 0 -37 0 7 -142z"/>
<path d="M1600 6373 c0 -16 -7 -50 -16 -78 -11 -37 -13 -72 -8 -135 3 -48 1
-110 -5 -142 -7 -38 -7 -76 0 -118 11 -71 7 -85 -23 -69 -27 15 -94 -4 -111
-31 -9 -16 -23 -20 -67 -20 -144 0 -393 -120 -447 -215 -33 -57 -43 -101 -44
-191 -4 -184 115 -417 260 -508 l42 -27 72 21 c126 38 187 48 187 31 0 -4 -54
-62 -120 -127 -167 -164 -211 -226 -245 -342 -42 -146 -29 -221 96 -562 85
-233 117 -403 144 -779 11 -151 20 -209 37 -258 18 -49 20 -67 12 -81 -6 -10
-15 -37 -19 -61 -6 -35 -14 -47 -41 -63 -38 -22 -40 -31 -19 -68 22 -39 19
-45 -40 -64 -40 -12 -55 -22 -55 -35 0 -29 -35 -52 -86 -57 -27 -3 -78 -16
-114 -31 -59 -24 -70 -25 -118 -15 -29 6 -59 9 -68 5 -8 -3 -43 7 -77 23 -88
39 -152 47 -200 22 -33 -16 -44 -17 -75 -7 -46 14 -55 22 -58 53 -1 14 -11 44
-22 68 -15 36 -29 48 -76 71 -32 16 -74 31 -94 34 -21 3 -45 14 -55 25 -15 15
-29 18 -65 15 -84 -6 -81 19 -82 -664 0 -326 4 -593 8 -593 5 0 25 16 44 36
24 24 38 32 43 24 20 -32 30 -599 11 -617 -3 -4 -6 4 -6 16 0 38 -25 18 -28
-22 -3 -38 -27 -52 -38 -22 -6 14 -8 13 -20 -2 -11 -14 -13 -98 -14 -415 l0
-398 150 0 150 0 0 49 c0 55 7 61 70 61 21 0 43 6 50 15 15 19 34 9 25 -14 -4
-9 -8 -27 -10 -41 -1 -14 -5 -35 -9 -48 -7 -21 -5 -22 44 -22 51 0 52 1 46 25
-3 14 -9 36 -12 50 -5 19 -2 26 12 31 11 3 27 10 38 15 12 7 27 7 47 -2 18 -7
51 -9 84 -6 69 7 88 -7 74 -55 -17 -61 -27 -58 211 -58 l220 0 0 23 c0 36 19
47 79 47 43 1 52 3 39 11 -10 5 -28 9 -40 8 -45 -4 -98 1 -98 10 0 4 41 11 92
15 50 3 94 8 96 11 11 10 -42 45 -69 45 -15 0 -34 3 -42 6 -8 3 -21 -1 -28 -9
-11 -11 -17 -9 -41 15 -16 17 -28 40 -28 56 -1 29 -20 62 -37 62 -6 0 -20 -22
-31 -48 -25 -57 -70 -87 -79 -52 -7 27 -31 26 -35 -2 -2 -11 -10 -22 -18 -24
-8 -1 -29 -5 -46 -9 -43 -9 -61 13 -41 52 45 89 40 199 -8 187 -29 -7 -49 19
-41 51 6 22 3 25 -20 25 -25 0 -25 -1 -19 -55 5 -38 4 -55 -4 -55 -7 0 -11
-20 -11 -50 0 -27 -4 -50 -10 -50 -5 0 -10 6 -10 14 0 8 -15 17 -37 21 -29 5
-40 3 -50 -11 -7 -10 -13 -12 -13 -6 0 7 -11 12 -24 12 -14 0 -28 5 -31 10 -3
6 -19 10 -35 10 -27 0 -29 -3 -28 -35 1 -39 -5 -51 -22 -40 -6 4 -10 28 -8 58
l3 52 54 8 c36 6 62 5 79 -2 34 -16 136 5 127 27 -3 7 -5 20 -5 28 0 10 -14
14 -56 14 -30 0 -64 5 -75 11 -12 6 -44 11 -72 12 l-52 2 -5 51 c-7 73 1 99
30 100 14 0 41 2 60 3 32 2 33 3 12 12 -13 5 -44 11 -70 13 -26 2 -50 4 -54 5
-5 1 -8 19 -8 41 0 47 -24 56 -33 13 -11 -49 -22 -58 -52 -45 -14 7 -35 12
-46 12 -11 0 -24 11 -31 25 -6 14 -14 25 -18 25 -4 0 -10 28 -13 63 -4 34 -11
103 -17 152 -14 124 -39 459 -34 464 6 7 204 -50 244 -69 19 -9 49 -25 65 -34
17 -9 39 -16 49 -16 11 0 27 -7 37 -16 21 -19 49 -12 49 12 0 9 7 31 16 50 14
28 15 44 6 87 -11 55 -2 87 23 87 10 0 15 -10 15 -30 0 -22 4 -28 15 -24 16 7
20 39 6 48 -21 13 -18 60 5 98 27 42 49 49 59 17 5 -14 12 -18 23 -14 51 21
52 21 52 -42 0 -37 -6 -67 -16 -81 -22 -32 -9 -46 26 -26 30 19 60 13 60 -10
0 -9 -13 -22 -30 -31 -27 -14 -30 -14 -30 0 0 14 -3 14 -31 -1 -30 -15 -31
-18 -25 -62 3 -27 14 -53 24 -62 10 -8 23 -23 28 -31 20 -36 132 -119 156
-117 20 3 24 -3 32 -45 9 -43 13 -48 47 -59 73 -21 85 -47 88 -181 1 -40 5
-50 21 -54 10 -3 22 -14 25 -25 4 -11 14 -18 24 -16 10 2 24 -2 32 -9 11 -9
22 -7 51 7 29 14 41 15 55 6 11 -6 34 -20 52 -31 18 -11 49 -31 69 -43 20 -13
43 -25 51 -27 9 -2 52 -15 96 -29 44 -13 114 -28 155 -31 71 -6 78 -9 120 -48
25 -24 71 -64 103 -91 55 -47 57 -49 37 -63 -11 -8 -20 -19 -20 -25 0 -18 -50
-78 -64 -78 -8 0 -16 -6 -19 -14 -3 -8 -22 -22 -41 -31 -20 -10 -36 -21 -36
-26 0 -5 -5 -9 -12 -9 -6 0 -22 -10 -34 -21 -21 -20 -24 -20 -39 -5 -23 23
-32 20 -50 -14 -11 -21 -20 -28 -33 -23 -15 6 -15 5 -3 -10 10 -12 11 -32 6
-72 l-6 -55 286 0 286 0 -7 58 c-4 31 -6 62 -5 67 1 6 5 88 7 183 4 118 2 172
-5 172 -6 0 -11 -11 -11 -24 0 -38 -12 -86 -21 -86 -5 0 -9 7 -9 15 0 8 -4 15
-10 15 -5 0 -10 -11 -10 -24 0 -38 -18 -41 -22 -4 -3 33 -8 35 -39 23 -10 -4
-19 0 -23 10 -4 11 -1 15 11 13 9 -2 18 3 21 11 3 8 0 11 -7 7 -6 -4 -11 -3
-11 3 0 5 3 11 8 13 15 7 52 100 52 134 0 29 -12 50 -59 107 -32 40 -70 83
-85 96 -18 17 -26 35 -26 57 0 18 -6 61 -14 96 -8 35 -18 96 -22 135 -6 70 -6
73 18 82 32 12 46 31 55 74 6 28 20 46 57 75 50 38 66 68 118 217 36 104 98
204 168 270 150 145 234 216 336 291 132 95 226 169 278 218 42 40 166 202
166 217 0 5 5 9 11 9 18 0 2 -77 -27 -126 -25 -42 -25 -46 -18 -172 6 -114 5
-130 -10 -135 -9 -4 -16 -13 -16 -21 0 -8 -5 -16 -12 -18 -15 -5 -26 -123 -27
-290 -1 -126 5 -152 29 -123 7 8 16 15 21 15 20 0 6 -25 -45 -78 -45 -48 -55
-64 -59 -102 -4 -43 -42 -163 -131 -415 -24 -66 -53 -154 -65 -195 -12 -41
-34 -109 -48 -150 -45 -135 -63 -204 -77 -295 -8 -52 -27 -121 -45 -164 -23
-53 -31 -88 -31 -131 0 -42 -5 -64 -20 -83 -11 -14 -20 -30 -20 -36 0 -8 113
-11 385 -11 l385 0 0 34 c0 18 9 54 20 79 11 25 32 90 45 144 14 54 47 163 75
243 l49 145 88 85 c120 117 231 210 248 210 26 0 17 54 -15 96 -47 62 -36 101
14 51 16 -16 25 -41 30 -78 7 -57 2 -84 -22 -108 -16 -17 -11 -169 14 -401 27
-250 28 -337 5 -404 -38 -106 -82 -96 414 -96 l435 0 -21 52 c-12 29 -23 59
-26 66 -3 7 0 47 7 90 11 66 10 89 -4 162 -21 104 -40 685 -25 763 5 28 9 112
10 187 1 135 1 138 25 149 17 7 24 19 24 39 0 33 -46 196 -65 232 -8 14 -18
47 -23 73 -8 38 -7 51 5 62 26 27 23 124 -8 225 -9 31 -7 43 16 94 l26 58 -47
231 c-26 128 -60 293 -75 367 -38 183 -39 175 23 206 29 15 70 37 90 50 21 13
43 24 49 24 26 0 72 -46 99 -101 22 -42 36 -59 50 -59 12 0 24 -10 29 -22 5
-13 21 -55 35 -93 35 -95 85 -161 267 -356 129 -137 137 -148 177 -219 20 -35
29 -63 26 -77 -4 -13 4 -36 20 -61 41 -65 42 -85 8 -129 -19 -24 -32 -55 -37
-86 -5 -42 -2 -57 21 -104 26 -50 27 -56 11 -64 -19 -11 -23 -34 -7 -44 15 -9
110 24 110 38 1 19 17 -15 25 -50 6 -30 4 -33 -18 -33 -24 0 -77 -34 -77 -50
0 -26 56 -70 114 -90 63 -21 63 -21 95 -89 17 -37 31 -71 31 -74 0 -4 46 -99
102 -212 95 -193 103 -205 129 -205 15 0 31 5 34 10 11 18 23 11 34 -20 13
-38 31 -45 76 -30 47 16 54 46 22 96 -13 22 -27 49 -31 62 -4 12 -18 34 -30
50 -21 25 -65 101 -159 273 -20 36 -44 93 -53 127 l-17 61 29 41 c95 131 88
205 -41 399 -54 81 -81 134 -95 185 -29 99 -37 116 -57 116 -17 0 -76 164
-189 525 -54 176 -68 213 -105 287 -21 42 -43 80 -49 83 -7 4 -9 19 -5 35 5
23 -3 39 -42 91 -58 77 -93 132 -93 148 0 16 30 14 36 -3 9 -23 145 -113 205
-135 97 -37 230 -18 322 45 27 19 53 34 57 34 4 0 18 -31 29 -69 12 -39 28
-77 37 -85 8 -9 13 -20 10 -25 -4 -5 -11 -33 -16 -62 -12 -62 1 -122 33 -157
22 -23 22 -24 3 -38 -23 -16 -42 -18 -51 -4 -12 19 -44 11 -49 -12 -35 -164
-22 -217 64 -260 95 -47 169 -36 255 37 59 51 85 92 85 135 0 15 5 41 11 57 7
23 6 53 -6 119 -35 191 -37 217 -20 227 14 7 16 37 16 210 0 322 0 339 -1 397
-1 30 -1 89 1 130 1 41 -3 121 -9 178 -11 91 -16 109 -44 149 -52 72 -52 100
9 718 14 143 23 287 20 320 -6 77 -51 211 -93 278 -18 29 -49 81 -70 116 l-38
64 34 29 c19 15 50 31 70 34 54 10 180 81 228 129 l42 43 0 156 0 156 -494 0
c-485 0 -494 0 -489 -20 5 -17 3 -18 -21 -7 -14 7 -26 15 -26 20 0 9 -79 8
-105 -2 -11 -4 -35 -4 -54 1 -23 7 -42 6 -60 -2 -18 -8 -27 -8 -29 -1 -2 7
-454 11 -1503 11 -1611 0 -1530 3 -1475 -49 19 -18 28 -21 44 -12 14 7 24 6
39 -4 20 -14 53 -73 53 -94 0 -21 -64 2 -97 36 -19 18 -38 33 -43 33 -6 0 -19
5 -29 12 -14 9 -34 9 -78 1 -32 -6 -61 -9 -65 -6 -13 7 -9 40 7 53 8 7 15 16
15 21 0 5 -88 9 -195 9 l-195 0 0 -27z m3059 -56 c54 -15 100 -71 121 -146 7
-28 17 -51 20 -51 10 0 4 -51 -7 -60 -4 -5 -17 -10 -28 -13 -18 -4 -18 -5 5
-14 23 -10 23 -12 6 -19 -10 -4 -27 -2 -37 5 -16 9 -19 8 -19 -10 0 -11 4 -18
9 -14 5 3 13 0 17 -6 5 -8 0 -10 -18 -6 -20 5 -27 2 -37 -19 -6 -15 -9 -29 -6
-32 3 -3 -3 -14 -12 -24 -16 -18 -16 -18 1 -12 10 4 22 17 26 30 6 16 15 22
25 18 17 -7 21 -24 5 -24 -5 0 -10 -7 -10 -15 0 -9 -8 -25 -19 -36 -17 -18
-19 -19 -25 -3 -5 13 -9 15 -18 6 -7 -7 -30 -12 -53 -11 l-40 1 37 16 c49 22
48 28 -2 24 -31 -3 -40 -8 -40 -23 0 -10 -7 -19 -15 -19 -8 0 -15 5 -15 10 0
6 4 10 10 10 5 0 7 6 4 13 -2 7 2 26 10 41 14 28 12 49 -7 74 -8 10 -14 8 -28
-7 -11 -11 -19 -24 -19 -29 0 -5 -6 -15 -14 -21 -11 -9 -15 -9 -20 1 -3 7 -3
3 0 -10 4 -15 0 -30 -11 -41 -13 -16 -14 -19 -1 -24 8 -3 24 -3 35 0 13 3 21
1 21 -7 0 -8 -11 -11 -31 -8 -23 4 -34 -1 -45 -16 -14 -20 -16 -19 -70 42 -31
34 -63 62 -71 62 -14 0 -14 -2 -1 -17 8 -10 25 -35 37 -57 l22 -39 -21 6 c-16
4 -20 2 -16 -10 3 -8 6 -19 6 -24 0 -5 7 -9 15 -9 8 0 15 -9 15 -20 0 -11 -7
-20 -15 -20 -25 0 -17 -32 17 -62 17 -15 34 -28 37 -28 3 0 27 -27 54 -59 35
-44 47 -67 47 -92 0 -72 -42 -267 -68 -315 -6 -11 -13 -27 -16 -37 -5 -16 -9
-17 -33 -4 -80 40 -111 55 -138 70 -84 44 -131 57 -122 33 3 -8 -3 -22 -13
-31 -17 -15 -19 -15 -25 5 -4 12 -1 27 5 35 10 12 9 15 -3 15 -8 0 -24 3 -34
6 -13 4 -14 3 -5 -4 11 -7 9 -10 -7 -15 -21 -5 -25 2 -22 33 2 13 1 13 -8 0
-9 -13 -14 -13 -32 -2 -11 8 -18 9 -15 4 3 -6 -1 -18 -10 -26 -14 -15 -13 -16
13 -17 15 -1 31 -1 36 0 4 0 7 -4 7 -9 0 -6 -7 -10 -15 -10 -17 0 -20 -16 -5
-25 6 -4 20 -8 33 -11 12 -2 35 -8 51 -12 27 -7 28 -9 12 -25 -10 -9 -13 -17
-7 -17 8 0 7 -7 -1 -20 -7 -11 -20 -20 -30 -20 -9 0 -18 -5 -20 -11 -2 -7 -24
-12 -48 -13 -25 -1 -51 -7 -58 -13 -7 -7 -25 -13 -40 -13 -53 -1 -105 -78 -59
-88 19 -4 38 29 19 36 -21 7 -13 20 13 20 14 0 25 -6 25 -13 0 -7 11 -20 25
-29 14 -9 25 -12 25 -6 0 6 17 11 38 10 60 0 72 2 72 17 0 11 12 13 47 11 41
-3 48 -6 53 -28 l6 -25 7 25 c6 21 9 22 17 10 16 -25 12 -50 -9 -50 -11 0 -23
-4 -26 -10 -3 -5 -15 -10 -26 -10 -10 0 -19 -5 -19 -12 0 -6 -3 -8 -6 -5 -4 4
-19 -1 -33 -11 -14 -9 -35 -22 -45 -28 -11 -6 -22 -16 -24 -24 -4 -10 5 -12
39 -7 54 7 81 -5 53 -22 -16 -10 -12 -11 23 -8 26 3 44 1 47 -7 3 -8 7 -7 14
2 7 11 10 10 16 -3 4 -11 12 -14 26 -10 15 5 18 3 14 -8 -6 -17 -52 -29 -60
-15 -3 4 -9 6 -14 3 -5 -3 -11 -1 -15 5 -3 5 -24 7 -46 5 -42 -6 -119 25 -119
47 0 7 -13 9 -37 5 -21 -4 -47 -8 -57 -9 -13 -2 -24 6 -32 20 -17 35 -27 42
-59 44 -67 5 -62 56 25 263 5 11 18 49 30 85 11 36 37 98 56 138 31 63 68 181
60 190 -2 1 -14 -2 -27 -7 -18 -6 -25 -17 -27 -42 -3 -33 -26 -69 -44 -69 -6
0 -21 -9 -34 -19 -21 -16 -30 -18 -62 -9 -20 6 -62 11 -92 12 -46 1 -55 4 -54
19 2 20 -25 22 -73 5 -28 -10 -49 -9 -117 5 -46 9 -93 17 -105 17 -11 0 -21 4
-21 9 0 14 118 61 194 77 89 19 338 44 433 44 83 0 79 -4 158 145 27 50 63
111 82 138 18 26 33 51 33 56 0 5 14 19 30 31 17 12 30 26 30 32 0 18 264 290
295 304 31 14 47 13 124 -9z m-1817 -54 c7 2 22 0 33 -6 11 -6 35 -10 53 -8
31 2 33 0 30 -33 -2 -42 6 -53 27 -36 20 17 28 8 20 -22 -9 -36 -52 -78 -80
-78 -14 0 -28 -1 -32 -2 -4 -2 -9 4 -11 13 -2 11 3 16 15 15 15 -1 19 8 21 45
4 61 -18 82 -52 50 -24 -23 -36 -19 -36 11 0 10 -6 18 -14 18 -19 0 -28 14
-20 34 5 13 10 14 20 5 7 -6 19 -9 26 -6z m-445 -157 c13 -12 86 -193 90 -226
l6 -45 -25 30 c-13 17 -35 48 -48 70 -34 56 -36 58 -107 128 -13 12 -23 30
-23 40 0 17 5 18 53 12 28 -4 53 -8 54 -9z m2827 -273 c5 -11 -1 -23 -15 -34
-13 -9 -20 -23 -16 -31 4 -11 -1 -15 -15 -14 -12 0 -23 -5 -26 -13 -7 -21 37
-4 83 33 37 28 46 31 110 30 118 -2 220 -38 249 -88 8 -14 8 -20 -1 -23 -21
-7 -15 -21 14 -35 17 -8 28 -21 28 -33 0 -13 7 -20 20 -20 16 0 20 -7 20 -34
0 -26 6 -37 23 -44 30 -13 25 -43 -6 -39 -20 3 -22 0 -16 -25 9 -36 13 -43 25
-43 6 0 8 8 4 19 -4 15 0 18 25 17 27 -1 30 -4 30 -33 0 -25 -3 -30 -19 -26
-12 3 -20 -2 -24 -16 -3 -14 -10 -18 -25 -14 -19 5 -21 2 -15 -33 7 -47 8 -48
28 -40 12 4 14 10 5 25 -5 11 -6 22 -2 25 15 9 40 -17 48 -47 5 -24 4 -28 -11
-25 -23 4 -44 -50 -24 -62 17 -11 29 -3 29 21 0 12 7 19 20 19 15 0 20 7 20
26 0 14 4 23 10 19 25 -15 -2 -95 -32 -95 -14 0 -18 -8 -18 -41 0 -33 3 -40
18 -37 11 2 16 11 14 27 -3 15 1 22 9 19 19 -6 22 -24 7 -40 -7 -8 -18 -23
-24 -33 -6 -11 -19 -22 -28 -23 -15 -3 -16 2 -10 32 8 46 -15 50 -34 6 -14
-31 -9 -50 12 -50 20 0 29 -81 11 -99 -19 -19 -29 -8 -16 17 11 21 6 32 -16
32 -7 0 -13 -7 -13 -16 0 -21 -21 -39 -47 -41 -28 -2 -39 13 -22 33 9 11 9 18
1 26 -13 13 -32 2 -32 -18 0 -8 -4 -14 -10 -14 -5 0 -10 -7 -10 -15 0 -13 13
-20 23 -12 11 7 37 -28 32 -44 -5 -14 -1 -19 14 -19 16 0 20 6 18 23 -1 17 4
23 24 25 22 3 27 -2 31 -22 5 -23 2 -26 -24 -26 -16 0 -31 -6 -34 -15 -3 -8
-22 -19 -41 -24 -38 -11 -55 -5 -103 31 -29 23 -208 187 -224 206 -6 7 -58 61
-116 120 -173 177 -203 212 -185 218 10 4 12 11 6 21 -10 19 16 54 35 46 15
-6 19 12 5 21 -8 6 -10 83 -1 78 3 -1 15 -5 28 -9 14 -3 21 -11 18 -19 -3 -8
-1 -14 3 -14 5 0 12 7 15 16 7 17 -18 43 -41 44 -18 0 -16 13 5 41 28 40 52
86 52 104 0 9 4 14 9 11 4 -3 13 6 19 19 10 22 65 65 83 65 4 0 10 -8 13 -17z
m-2669 -149 c25 -71 45 -136 44 -144 0 -18 -40 28 -76 88 -14 24 -31 41 -38
38 -7 -2 -25 13 -41 34 -16 21 -39 44 -52 50 -13 5 -22 16 -19 23 6 19 59 16
86 -5 34 -26 41 -23 41 19 0 20 2 34 5 31 3 -3 25 -63 50 -134z m225 -59 c0
-19 56 -21 64 -2 3 6 4 3 3 -8 -1 -14 4 -20 22 -21 25 -1 51 -28 51 -51 0 -7
-5 -13 -11 -13 -5 0 -9 -10 -7 -22 2 -14 -2 -23 -10 -23 -8 0 -19 -8 -26 -17
-7 -10 -18 -18 -23 -18 -5 0 -18 -9 -28 -20 -18 -20 -19 -20 -57 37 -21 32
-38 63 -38 70 0 15 33 25 55 16 15 -5 17 -3 12 11 -4 10 -7 22 -7 27 0 5 -8 9
-19 9 -25 0 -47 26 -29 33 26 11 48 7 48 -8z m-1200 -81 c0 -8 6 -17 14 -20
12 -5 28 -45 30 -77 1 -5 8 -14 17 -20 8 -7 19 -21 23 -32 6 -13 10 -16 13 -7
3 7 1 20 -3 30 -4 9 -6 21 -5 26 1 4 -4 13 -12 20 -7 6 -18 23 -25 39 -11 26
-10 27 18 27 17 0 30 5 30 10 0 6 7 10 15 10 18 0 77 -29 85 -41 3 -4 26 -17
50 -27 25 -11 54 -27 65 -36 19 -15 18 -15 -17 -16 -20 0 -40 -4 -43 -10 -10
-17 -48 -12 -41 5 7 20 -8 19 -25 -2 -11 -13 -11 -17 -1 -20 6 -3 12 -9 12
-15 0 -10 25 -38 34 -38 3 0 6 7 6 15 0 16 39 21 42 5 4 -28 2 -33 -15 -36
-25 -3 -28 -7 -17 -24 7 -11 11 -11 23 -1 13 10 18 8 31 -10 13 -20 18 -21 41
-11 15 7 24 8 20 3 -3 -6 2 -14 11 -19 15 -8 15 -13 3 -41 -8 -17 -20 -31 -26
-31 -7 0 -13 -4 -13 -10 0 -5 -21 -23 -47 -41 -25 -18 -54 -39 -63 -48 -9 -9
-44 -35 -78 -58 -61 -43 -95 -53 -107 -32 -4 6 -13 8 -20 5 -24 -9 -43 28 -51
94 -3 36 -11 73 -16 83 -6 12 -5 17 7 17 8 0 15 7 15 15 0 8 -6 15 -14 15 -9
0 -15 16 -19 46 -7 62 0 84 27 81 15 -1 22 4 24 21 2 12 -1 22 -7 22 -6 0 -11
7 -11 15 0 17 9 19 29 6 7 -5 11 -13 7 -19 -5 -9 22 -27 30 -19 9 8 -10 47
-23 47 -9 0 -13 6 -10 15 4 8 2 17 -2 19 -5 3 -11 18 -14 33 -3 16 -9 37 -13
47 -5 14 -4 17 4 12 7 -4 12 -14 12 -22z m935 -4 c-5 -15 -3 -18 9 -14 11 4
30 -8 55 -35 33 -35 41 -53 52 -111 7 -39 9 -73 6 -77 -8 -7 -47 31 -47 45 0
5 -18 28 -40 52 -22 24 -42 58 -46 77 -3 18 -10 36 -15 39 -11 6 8 44 22 44 6
0 8 -9 4 -20z m2470 -258 c6 -4 15 -16 21 -27 6 -11 20 -24 32 -30 12 -5 22
-13 22 -16 0 -8 32 -44 122 -136 48 -49 75 -70 86 -66 11 5 14 2 9 -10 -7 -18
63 -93 141 -149 30 -23 39 -34 30 -40 -36 -22 -149 5 -198 47 -14 12 -33 25
-43 28 -9 4 -21 17 -26 30 -5 14 -21 27 -35 31 -17 4 -26 13 -26 26 0 11 -11
27 -25 36 -14 9 -25 25 -25 35 0 11 -6 20 -12 21 -7 0 -17 2 -23 3 -5 2 -14 3
-19 4 -5 0 -3 7 3 14 8 10 5 22 -14 47 -14 19 -25 41 -25 50 0 9 -3 20 -7 24
-9 9 -12 86 -4 86 3 0 11 -4 16 -8z m-1576 -25 c68 -3 101 -35 101 -100 0 -39
5 -46 60 -96 33 -30 60 -62 60 -72 0 -10 12 -24 27 -31 25 -12 27 -18 28 -65
0 -29 2 -53 5 -53 3 1 16 7 30 15 38 22 67 18 86 -10 14 -21 16 -42 12 -109
-6 -86 -31 -158 -69 -192 -27 -24 -67 -25 -84 0 -15 20 -15 20 -15 -8 0 -20 4
-27 14 -23 23 9 51 -47 82 -163 31 -119 40 -180 27 -180 -4 0 -16 26 -25 58
-53 188 -69 236 -80 243 -8 5 -14 3 -16 -4 -2 -7 -10 -26 -18 -44 -8 -17 -14
-40 -14 -50 0 -52 -168 -253 -212 -253 -10 0 -18 -7 -18 -15 0 -8 -6 -15 -13
-15 -6 0 -34 -16 -61 -35 -42 -29 -58 -35 -102 -35 -95 0 -151 37 -140 92 5
27 4 30 -14 25 -14 -3 -24 1 -31 15 -6 11 -8 22 -5 26 3 3 6 0 6 -6 0 -7 9
-12 20 -12 17 0 18 3 10 26 -9 22 -7 29 11 45 20 18 34 23 51 20 15 -2 78 30
74 38 -3 4 5 6 18 4 17 -4 28 2 40 18 9 13 16 19 16 14 0 -5 12 7 26 28 33 49
29 71 -14 75 -30 3 -32 1 -27 -20 7 -31 -2 -41 -53 -61 -69 -27 -162 -17 -162
17 0 20 9 24 61 31 162 19 180 34 47 36 -51 1 -116 2 -145 3 -28 0 -55 -2 -58
-6 -4 -4 2 -23 13 -41 11 -19 27 -61 37 -93 9 -33 24 -67 33 -77 8 -9 12 -20
8 -25 -5 -4 -14 2 -22 13 -48 66 -86 128 -119 189 -62 119 -83 306 -33 306 10
0 46 8 78 18 50 14 61 22 70 46 17 48 12 70 -24 111 l-34 38 -66 -5 -66 -6 0
59 c0 81 17 150 44 182 27 31 172 103 236 117 25 5 92 7 150 4 58 -3 129 -6
159 -7z m2218 -442 c-10 -7 -17 -17 -17 -22 0 -6 -6 -16 -14 -22 -20 -17 -30
-79 -30 -203 -1 -58 -5 -110 -9 -114 -4 -5 -17 -3 -28 4 -11 7 -30 10 -46 6
-26 -7 -26 -7 -10 17 23 32 21 39 -10 40 -26 1 -25 2 9 13 20 6 40 14 43 18 4
4 0 30 -9 59 -10 28 -15 53 -13 56 3 2 2 16 -2 31 -6 22 -2 32 27 59 37 35 58
43 48 18 -11 -30 10 -14 32 25 13 24 28 38 34 34 7 -5 6 -11 -5 -19z m-3431
-51 c-4 -10 7 -35 29 -65 55 -77 54 -87 -7 -150 -29 -30 -68 -61 -86 -68 -42
-18 -40 -46 3 -45 33 0 103 21 122 36 8 7 18 5 28 -6 10 -10 25 -13 44 -10 21
5 35 0 50 -15 l21 -21 -30 -15 c-17 -9 -28 -20 -26 -24 6 -9 -31 -44 -79 -76
-33 -22 -34 -22 -140 -84 -41 -25 -75 -48 -75 -53 0 -4 -8 -8 -17 -8 -10 -1
-34 -9 -53 -20 -19 -10 -45 -24 -57 -29 -13 -6 -23 -15 -23 -21 0 -18 -29 -10
-35 10 -7 22 -20 26 -30 10 -9 -14 -36 -12 -33 2 2 7 -16 19 -40 26 -24 8 -41
16 -39 19 3 2 -1 25 -9 50 l-14 46 73 76 c129 134 198 227 267 353 29 53 87
98 128 98 27 0 33 -3 28 -16z m1821 -27 c22 -12 23 -15 23 -40 0 -8 11 -19 26
-25 14 -7 31 -27 39 -46 14 -33 23 -42 150 -146 66 -54 95 -97 95 -141 0 -18
-4 -20 -22 -14 -13 4 -34 8 -48 10 -14 1 -25 3 -25 4 0 2 -8 4 -17 6 -10 2
-18 -3 -18 -11 0 -8 6 -14 14 -14 8 0 16 -6 19 -14 3 -8 24 -17 47 -21 35 -6
44 -12 56 -41 14 -33 19 -94 9 -94 -3 0 -21 16 -41 35 -20 21 -45 35 -59 35
-13 0 -28 7 -33 17 -5 9 -22 17 -38 19 -16 2 -30 8 -32 14 -2 5 -15 10 -28 10
-17 0 -24 -6 -24 -20 0 -11 5 -20 12 -20 6 0 9 -3 6 -6 -9 -9 -45 13 -52 32
-4 10 -1 21 6 26 9 5 6 8 -9 8 -26 0 -91 54 -103 86 -5 12 -6 32 -3 44 4 17
11 20 29 16 25 -7 34 8 12 18 -7 3 1 3 17 -1 38 -7 43 -12 25 -23 -11 -7 -4
-9 22 -8 36 1 55 19 42 39 -3 5 0 9 5 9 6 0 11 9 11 20 0 11 5 20 10 20 6 0
10 5 10 12 0 9 -3 9 -12 0 -18 -18 -28 -15 -28 8 0 11 -4 20 -10 20 -5 0 -10
6 -10 13 0 7 -13 18 -30 24 -25 9 -30 9 -30 -3 0 -8 -6 -14 -14 -14 -8 0 -16
-7 -20 -15 -3 -8 0 -15 5 -15 6 0 9 -9 6 -20 -3 -11 -1 -20 4 -20 5 0 9 -3 9
-8 0 -4 -18 -7 -40 -7 -35 0 -40 3 -46 28 -4 22 -10 26 -25 22 -11 -4 -19 -2
-19 6 0 6 -7 17 -15 23 -8 6 -16 26 -17 44 -1 17 -6 32 -10 32 -4 0 -7 19 -5
43 2 42 2 42 39 39 20 -1 39 2 43 8 8 14 65 12 92 -3z m1573 -355 c14 -5 32
-17 40 -26 11 -15 10 -19 -8 -32 -22 -15 -30 -54 -12 -54 6 0 15 11 20 24 14
38 29 40 60 6 17 -18 30 -35 30 -39 0 -3 23 -19 50 -36 55 -32 65 -48 23 -36
-16 5 -50 7 -78 5 -27 -2 -62 -4 -77 -4 -16 0 -28 -4 -28 -9 0 -20 29 -29 85
-26 36 2 66 -2 74 -8 11 -9 15 -9 18 1 5 14 33 16 33 2 0 -5 7 -10 16 -10 8 0
12 -5 9 -10 -10 -16 18 -70 34 -67 8 1 16 -4 19 -12 3 -9 0 -11 -8 -6 -7 4
-16 2 -20 -6 -7 -10 -11 -10 -24 0 -13 11 -19 11 -31 1 -8 -7 -25 -10 -40 -6
-38 10 -34 -28 6 -48 29 -15 31 -14 36 4 6 23 23 27 23 6 0 -22 17 -28 39 -14
28 17 44 0 25 -27 -12 -16 -16 -17 -23 -6 -10 16 -31 6 -31 -15 0 -19 -26 -18
-34 1 -6 17 -32 20 -41 4 -4 -5 1 -19 10 -29 9 -10 14 -24 10 -29 -3 -6 -1
-11 4 -11 16 0 13 -27 -3 -33 -7 -3 -16 -15 -19 -27 -4 -16 -1 -24 14 -27 24
-7 24 -18 1 -41 -22 -22 -60 -22 -72 -2 -7 12 -12 11 -28 -3 -25 -23 -39 -21
-58 8 -9 14 -25 25 -35 25 -23 0 -25 -25 -3 -34 10 -4 13 -13 9 -26 -5 -17 -2
-20 24 -20 17 0 31 4 31 9 0 5 11 4 25 -2 29 -14 31 -23 8 -36 -23 -11 -73
-11 -73 0 0 5 -11 9 -25 9 -18 0 -25 -5 -25 -20 0 -11 7 -20 15 -20 24 0 17
-30 -7 -31 -38 -2 -52 2 -64 17 -15 18 -28 18 -45 -2 -11 -13 -10 -17 4 -25
38 -22 2 -44 -40 -25 -26 11 -30 26 -8 26 18 0 19 23 4 52 -9 16 -7 23 10 35
25 17 27 33 5 33 -9 0 -18 9 -21 20 -6 24 -16 25 -34 4 -11 -14 -11 -18 4 -29
28 -20 20 -35 -18 -35 -22 0 -38 6 -41 15 -4 8 -14 15 -24 15 -22 0 -32 36
-14 51 10 8 15 5 20 -15 4 -17 13 -26 25 -26 20 0 26 24 8 35 -7 5 -5 15 6 32
22 33 13 51 -29 59 -39 7 -44 19 -22 50 15 19 15 19 30 -1 8 -11 17 -17 20
-14 10 10 -6 69 -19 69 -7 0 -18 6 -24 14 -10 11 -8 16 9 21 12 4 27 2 33 -4
15 -15 27 -14 27 4 0 8 -7 15 -15 15 -8 0 -15 5 -15 10 0 6 -7 10 -15 10 -8 0
-15 5 -15 10 0 6 9 10 21 10 12 0 23 8 26 19 2 10 21 28 42 39 32 18 43 20 76
11 31 -9 41 -8 49 3 13 18 36 12 36 -8 0 -8 6 -14 14 -14 24 0 26 15 5 34 -15
12 -29 15 -55 10 -27 -5 -34 -3 -34 10 0 17 14 20 68 17 23 -2 32 2 32 13 0
12 -10 16 -40 16 -22 0 -40 -4 -40 -10 0 -5 -9 -10 -20 -10 -11 0 -20 -4 -20
-8 0 -5 -19 -17 -42 -27 -24 -10 -62 -37 -85 -59 -24 -22 -46 -37 -50 -33 -4
4 -1 30 6 58 9 32 10 54 4 58 -13 8 -23 51 -12 51 5 0 9 4 9 10 0 30 56 67
154 101 l39 14 -29 5 c-39 7 -42 51 -4 60 33 9 89 5 120 -8z m-1956 -138 c-8
-20 -13 -43 -10 -51 8 -20 -51 -144 -66 -142 -7 1 -26 -4 -43 -11 -21 -9 -26
-14 -15 -18 8 -3 20 -10 25 -17 6 -6 22 -16 38 -23 24 -10 27 -10 27 9 0 26
43 109 68 132 23 21 50 19 65 -4 11 -18 -15 -112 -82 -299 -23 -63 -44 -123
-46 -133 -7 -30 -51 -100 -79 -126 -14 -14 -26 -23 -27 -20 0 2 -3 27 -5 54
-3 28 -12 65 -21 84 -14 31 -14 35 6 62 12 15 21 31 21 34 0 3 10 19 22 35 26
36 18 50 -11 19 -40 -43 -30 -12 14 41 24 30 43 55 42 56 -1 2 -40 -4 -86 -12
-63 -11 -87 -12 -97 -3 -8 6 -11 16 -7 23 3 6 -4 2 -16 -9 l-23 -19 -19 24
c-24 33 -24 37 6 44 14 4 34 15 45 26 11 11 32 23 47 26 28 7 71 50 128 129
43 60 99 125 107 125 4 0 0 -16 -8 -36z m-1332 -91 l20 -45 29 35 c35 43 78
61 123 53 l35 -7 -20 -20 c-11 -11 -36 -23 -56 -26 -25 -4 -41 -15 -56 -39
-12 -19 -29 -33 -37 -31 -22 3 -24 -33 -3 -62 11 -14 22 -34 26 -43 3 -10 14
-18 22 -18 9 0 13 5 10 10 -3 6 -4 10 -1 10 2 0 11 3 19 6 11 4 17 -5 22 -38
4 -24 19 -61 33 -83 l26 -40 6 28 c3 16 17 35 36 46 l31 19 11 -35 c9 -31 9
-34 -6 -31 -15 4 -17 -7 -20 -86 -1 -50 -4 -102 -5 -115 -2 -22 4 -25 63 -37
132 -27 189 -46 195 -65 10 -30 -2 -37 -47 -27 -24 5 -85 13 -136 18 -94 9
-122 20 -122 46 0 24 -52 4 -86 -32 -29 -31 -50 -45 -42 -26 24 50 36 66 60
78 19 10 28 22 28 39 0 32 18 32 26 0 3 -14 13 -25 21 -25 19 0 10 26 -34 102
-19 32 -40 57 -46 55 -7 -2 -14 -27 -17 -55 -3 -32 -13 -59 -24 -69 -17 -17
-18 -17 -13 2 3 11 11 40 17 65 6 25 14 52 17 60 10 24 3 49 -22 85 -61 91
-155 374 -115 350 7 -4 21 -28 32 -52z m1498 -7 c0 -7 11 -49 25 -92 29 -91
31 -117 10 -134 -8 -7 -15 -23 -15 -37 0 -39 -80 -187 -194 -358 -110 -167
-161 -233 -172 -223 -8 8 14 48 27 48 6 0 7 5 3 12 -5 8 -2 9 9 5 13 -5 17 -1
17 16 0 21 26 64 82 137 14 19 30 48 34 63 3 16 13 31 21 34 7 3 23 23 33 44
11 22 30 58 41 81 28 56 59 146 59 173 0 12 7 42 16 67 14 42 14 51 0 99 -19
61 -20 79 -6 79 6 0 10 -6 10 -14z m-2262 -71 c12 -3 22 -13 22 -21 0 -8 10
-14 25 -14 34 0 104 -48 111 -76 14 -54 -33 -59 -97 -11 -24 18 -60 43 -80 55
-53 32 -65 48 -49 67 7 9 20 13 29 11 9 -2 26 -7 39 -11z m437 -90 c7 -31 24
-259 20 -264 -7 -6 -35 71 -36 98 -1 17 -3 20 -6 9 -2 -10 -9 -18 -14 -18 -8
0 -10 6 -13 43 -1 6 5 11 12 10 21 -5 13 13 -12 25 -20 9 -24 17 -22 49 3 40
12 69 30 91 8 11 12 10 23 -5 8 -10 16 -27 18 -38z m2815 2 c8 -27 26 -49 60
-73 33 -24 49 -43 54 -65 3 -17 17 -40 31 -51 13 -10 30 -37 36 -59 11 -36 10
-41 -9 -62 -21 -22 -29 -47 -16 -47 3 0 19 8 35 17 31 18 34 18 43 -12 5 -17
-5 -25 -67 -54 -51 -24 -89 -51 -131 -94 -65 -68 -66 -62 -8 61 19 41 36 88
37 104 1 16 5 31 9 35 9 10 7 23 -4 23 -5 0 -10 -6 -10 -14 0 -8 -7 -17 -16
-20 -24 -9 -31 -7 -14 4 10 7 11 10 2 10 -7 0 -15 -7 -18 -15 -3 -8 -14 -17
-25 -20 -10 -4 -22 -17 -25 -31 -4 -16 -13 -24 -28 -24 -12 0 -27 -9 -34 -20
-20 -33 -34 -24 -26 18 9 56 35 146 46 159 23 29 54 208 39 227 -11 14 6 63
18 50 5 -5 14 -26 21 -47z m-1430 -354 c-4 -50 0 -74 9 -68 19 11 31 -64 32
-200 1 -77 -1 -160 -5 -185 -4 -25 -7 -66 -6 -92 0 -45 -11 -61 -25 -38 -16
26 -23 6 -9 -27 10 -26 13 -53 9 -83 -11 -83 -26 -138 -41 -144 -10 -4 -12
-14 -7 -37 5 -25 3 -31 -8 -27 -10 3 -14 24 -15 74 0 61 -2 69 -20 69 -10 0
-25 4 -32 9 -7 4 -16 6 -18 3 -8 -7 15 -47 26 -47 6 0 10 -4 10 -10 0 -5 -13
-10 -30 -10 -16 0 -30 5 -30 10 0 19 -69 11 -90 -10 -11 -11 -29 -20 -40 -20
-17 0 -20 7 -20 45 0 40 3 47 27 56 14 5 33 7 41 4 21 -8 62 5 62 20 0 18 -30
28 -45 15 -9 -8 -12 3 -14 46 -1 32 -4 61 -7 66 -3 4 -3 16 0 26 8 24 62 28
74 6 8 -15 12 -14 32 6 l22 22 -28 19 c-36 23 -46 24 -42 2 2 -13 -5 -19 -24
-21 -20 -2 -28 1 -28 13 0 8 6 18 14 21 24 9 7 32 -30 38 -34 7 -45 21 -21 29
6 2 25 0 40 -4 27 -8 29 -6 23 16 -4 14 -1 25 7 28 9 3 9 9 -1 26 -10 18 -10
22 3 27 11 5 12 10 4 26 -6 11 -9 20 -7 21 2 1 13 8 26 15 13 7 22 8 22 2 0
-19 18 -10 23 12 6 21 7 22 27 3 28 -25 44 -8 28 28 -9 19 -18 25 -30 21 -21
-6 -24 9 -4 25 11 9 17 8 29 -4 20 -19 27 -19 27 0 0 8 5 15 10 15 14 0 13 27
-1 36 -6 3 -15 0 -20 -7 -8 -11 -12 -10 -24 5 -19 25 -19 36 0 36 8 0 15 -5
15 -11 0 -8 5 -7 15 1 9 7 13 20 10 28 -3 8 0 21 6 28 6 8 9 25 7 39 -5 24 3
33 30 34 9 1 13 -9 12 -26z m-972 -375 c6 -15 20 -32 32 -38 11 -6 18 -15 15
-21 -4 -5 -10 -7 -15 -4 -5 3 -13 -2 -18 -10 -7 -13 -11 -7 -21 25 -16 54 -31
42 -31 -24 0 -35 -5 -58 -15 -66 -11 -9 -15 -9 -15 -1 0 7 -4 9 -10 6 -5 -3
-10 -1 -10 4 0 6 -4 11 -10 11 -21 0 -9 -45 15 -57 20 -9 25 -8 25 3 0 8 6 11
15 8 17 -7 21 -54 5 -54 -5 0 -10 -10 -10 -23 0 -12 -9 -28 -21 -35 -12 -7
-18 -16 -15 -19 3 -3 -1 -12 -9 -20 -13 -13 -20 -41 -16 -65 3 -20 -29 -5 -33
15 -3 12 -13 57 -22 99 -12 59 -20 79 -35 83 -15 5 -18 12 -12 32 9 39 64 123
79 123 8 0 21 14 30 32 9 18 27 41 40 51 21 16 24 27 24 80 0 117 15 118 21 2
4 -60 11 -122 17 -137z m1817 151 c46 7 82 8 88 2 14 -14 -4 -81 -27 -96 -13
-9 -54 -14 -111 -16 l-90 -2 2 26 c2 31 45 99 54 86 4 -7 32 -7 84 0z m-1538
-35 c3 -8 15 -14 28 -14 23 0 41 -25 25 -35 -10 -6 -218 -5 -242 2 -21 5 -24
36 -5 51 27 23 185 20 194 -4z m991 -246 c7 -7 12 -21 12 -31 0 -10 9 -21 20
-24 11 -3 20 -11 20 -18 0 -7 4 -15 10 -17 15 -5 29 -97 23 -151 -5 -37 -2
-50 11 -60 25 -19 29 -76 5 -105 -22 -29 -24 -79 -4 -106 21 -27 19 -72 -2
-80 -10 -3 -26 -11 -36 -18 -14 -11 -19 -11 -26 1 -7 10 -11 5 -16 -18 -9 -40
-20 -33 -34 22 -6 24 -24 70 -41 102 -16 31 -30 65 -30 75 0 11 -3 21 -7 23
-6 4 -9 -44 -4 -60 1 -2 1 -6 2 -10 0 -5 4 -12 9 -18 4 -5 11 -25 15 -42 5
-27 3 -33 -10 -33 -13 0 -15 -9 -11 -55 6 -63 -6 -79 -24 -32 -6 17 -19 48
-27 69 -8 20 -13 41 -9 46 5 9 -3 45 -19 84 -5 13 0 17 22 20 18 2 29 10 31
23 2 11 11 28 19 37 14 15 14 19 -1 33 -9 9 -18 26 -21 38 -9 37 1 211 14 235
7 12 10 26 7 31 -9 13 21 34 49 34 14 0 25 3 25 8 0 13 14 11 28 -3z m230 -99
c6 17 22 13 23 -6 0 -12 2 -14 6 -5 3 9 16 -2 34 -30 16 -23 33 -44 39 -44 5
-1 13 -2 17 -3 3 0 -2 -10 -12 -21 -16 -18 -16 -20 -1 -26 17 -6 49 -64 44
-80 -1 -5 1 -27 6 -48 5 -26 4 -41 -4 -46 -8 -5 -7 -12 5 -23 13 -14 14 -20 3
-37 -7 -11 -16 -20 -19 -20 -3 0 -4 -11 -1 -25 6 -33 -4 -32 -23 3 l-16 27 7
-34 c9 -50 -11 -31 -50 48 -45 88 -86 215 -86 266 0 59 -11 115 -21 109 -5 -3
-9 4 -9 15 0 19 2 19 27 -5 15 -14 29 -21 31 -15z m-1308 -143 c0 -35 -103
-116 -149 -116 -25 0 -34 -6 -50 -37 -22 -44 -47 -68 -93 -92 -18 -9 -32 -23
-30 -30 2 -8 0 -21 -4 -30 -4 -9 -6 -26 -5 -38 2 -18 -1 -22 -16 -17 -10 4
-23 13 -29 20 -9 11 -14 11 -27 -4 -28 -31 -31 -68 -7 -85 15 -10 18 -17 10
-22 -7 -4 -15 -3 -19 3 -3 6 -27 12 -53 13 -37 2 -52 -2 -78 -24 -17 -15 -35
-27 -40 -27 -5 0 -10 -10 -12 -22 -2 -13 -7 -22 -13 -21 -17 3 -44 -28 -50
-58 -4 -16 -13 -29 -20 -29 -9 0 -15 -14 -17 -37 -2 -20 -9 -38 -16 -41 -9 -3
-11 3 -6 22 8 33 -10 34 -28 2 -7 -13 -30 -55 -51 -93 -21 -37 -40 -79 -44
-93 -9 -38 -23 -50 -57 -50 -35 0 -90 -48 -99 -85 -4 -18 -5 -18 -6 3 0 12 5
38 13 57 14 34 121 179 226 307 30 37 71 89 90 115 32 44 184 196 255 255 17
14 55 38 85 53 30 15 87 52 126 81 39 29 92 62 117 73 25 11 52 29 59 40 15
24 38 28 38 7z m1036 -489 c10 4 14 -3 14 -24 0 -17 4 -43 10 -59 5 -16 11
-48 13 -72 2 -23 8 -41 13 -40 5 1 8 8 6 15 -2 7 1 13 5 13 5 0 9 21 9 48 1
26 5 68 9 93 7 45 9 47 44 48 20 1 50 3 66 4 26 2 30 -2 33 -25 4 -30 26 -37
40 -13 5 10 15 13 25 9 37 -14 5 -61 -34 -49 -14 5 -19 4 -15 -4 4 -6 13 -11
21 -11 15 0 25 -38 23 -88 -2 -46 -42 -74 -103 -71 -34 2 -53 -3 -76 -20 -24
-18 -33 -20 -44 -11 -8 7 -12 16 -9 21 3 5 1 9 -5 9 -6 0 -18 26 -27 58 -21
75 -37 91 -30 31 4 -39 2 -50 -16 -65 -20 -19 -21 -19 -14 4 5 13 3 29 -4 37
-6 7 -13 55 -16 105 l-5 92 26 -20 c15 -12 33 -18 41 -15z m762 -264 c6 -9 12
-24 12 -34 0 -30 -23 -36 -147 -43 -133 -8 -143 -4 -123 44 17 40 74 59 170
54 56 -3 78 -8 88 -21z m-4008 -1558 c0 -8 5 -15 10 -15 6 0 10 7 10 15 0 18
16 20 27 3 4 -7 9 -35 10 -63 2 -27 4 -61 6 -75 2 -27 -30 -42 -44 -19 -4 7
-27 15 -50 16 -24 2 -46 6 -50 10 -4 5 -11 32 -15 61 -6 49 -5 52 15 52 11 0
21 4 21 9 0 8 10 12 53 20 4 0 7 -6 7 -14z m339 -319 c53 -1 55 -2 63 -34 12
-44 -5 -65 -42 -57 -15 3 -71 7 -126 9 -65 2 -99 7 -102 15 -2 7 5 15 17 18
15 4 21 13 21 36 l0 30 58 -8 c31 -5 81 -9 111 -9z"/>
<path d="M4265 5725 c-21 -44 -22 -46 -24 -76 0 -11 -5 -17 -11 -14 -18 11
-31 -5 -20 -25 12 -23 -2 -65 -25 -73 -9 -4 -24 -1 -35 5 -22 14 -35 6 -26
-18 5 -13 14 -15 43 -9 l36 6 -6 -48 c-3 -27 -11 -61 -18 -77 -12 -26 -13 -27
-21 -7 -5 15 -16 21 -36 21 -16 0 -41 11 -57 24 l-28 24 -17 -21 c-17 -21 -17
-22 12 -40 17 -10 32 -27 35 -37 3 -11 9 -18 13 -15 4 3 11 -2 14 -11 3 -9 15
-14 28 -12 18 2 24 -3 26 -20 2 -13 9 -21 15 -19 12 3 21 31 46 127 6 25 23
88 38 140 14 52 27 104 28 115 1 11 6 28 10 37 3 9 5 27 3 40 -3 20 -5 18 -23
-17z"/>
<path d="M3205 4966 c-74 -14 -100 -28 -92 -50 4 -11 19 -16 47 -16 22 0 40
-2 40 -5 0 -3 -9 -15 -20 -27 -54 -61 -53 -59 -39 -73 16 -16 159 -38 186 -29
10 3 27 10 38 15 11 5 32 13 48 19 67 24 -10 80 -120 88 -40 2 -73 8 -73 12 0
19 118 26 185 10 47 -11 50 -9 34 18 -30 49 -111 62 -234 38z"/>
<path d="M463 4063 c-13 -8 -23 -21 -23 -28 0 -7 -15 -22 -33 -32 l-32 -20 0
-111 c0 -103 2 -112 24 -136 14 -14 28 -26 32 -26 4 0 23 -16 42 -35 24 -24
41 -33 54 -29 15 5 16 4 3 -5 -13 -10 -13 -12 0 -21 8 -5 21 -8 28 -5 8 3 20
5 29 5 9 0 13 6 10 15 -4 8 -2 17 3 20 16 10 12 25 -6 25 -9 0 -25 11 -35 24
-10 13 -33 26 -51 30 -49 10 -78 42 -78 88 0 28 5 40 18 45 9 4 20 11 24 17 5
6 8 2 8 -11 0 -12 -4 -24 -10 -28 -5 -3 -7 -12 -3 -21 5 -12 8 -13 22 -2 9 8
28 20 44 28 35 17 37 45 2 36 -28 -7 -32 0 -11 23 8 9 16 36 19 60 2 23 10 47
17 51 11 7 8 14 -11 34 -27 29 -54 32 -86 9z"/>
<path d="M0 3341 l0 -389 39 -41 c22 -23 43 -41 47 -41 4 0 16 -8 26 -17 17
-15 19 -15 32 3 8 10 12 23 9 27 -3 5 4 4 16 -2 19 -10 22 -9 32 16 l11 28 12
-24 c11 -20 14 -4 21 120 13 236 12 510 -2 528 -7 9 -13 23 -13 32 0 24 -61
82 -73 70 -6 -6 -12 -71 -14 -145 -2 -73 -8 -147 -12 -162 l-8 -29 -11 26 c-5
14 -10 97 -11 183 0 150 -1 160 -22 182 -13 14 -34 24 -51 24 l-28 0 0 -389z"/>
<path d="M6276 2376 c-13 -20 -15 -31 -7 -39 15 -15 14 -38 -1 -34 -9 1 -14
-14 -16 -45 -2 -34 -7 -48 -18 -48 -15 0 -18 -15 -15 -67 2 -24 -2 -33 -13
-33 -15 0 -21 -16 -18 -52 1 -10 -5 -18 -14 -18 -14 0 -14 -2 0 -15 15 -15 91
-21 99 -7 5 7 9 46 26 229 5 45 5 99 2 119 l-6 38 -19 -28z"/>
<path d="M6045 290 c-3 -5 -1 -10 4 -10 6 0 11 -4 11 -10 0 -5 -10 -10 -22
-10 -21 -1 -22 -2 -5 -14 9 -7 17 -18 17 -25 0 -6 13 -11 29 -11 17 0 32 -4
36 -9 5 -10 -6 -15 -61 -26 -21 -4 -34 -13 -38 -28 -9 -35 11 -44 39 -17 22
21 25 21 25 6 0 -16 2 -15 18 4 14 18 29 22 82 23 64 2 65 2 67 -26 1 -21 -3
-27 -17 -27 -12 0 -17 5 -14 14 6 17 -17 27 -45 19 -16 -4 -21 -12 -19 -32 l3
-26 -80 3 c-44 2 -88 8 -98 13 -30 17 -54 2 -52 -31 1 -17 4 -31 6 -33 48 -32
86 -37 275 -37 l195 0 -3 63 -3 62 -42 -1 c-28 0 -40 3 -36 11 2 7 -6 15 -19
19 -22 6 -22 7 -4 21 17 13 18 15 2 21 -10 4 -14 13 -11 24 4 13 -2 19 -25 23
-21 5 -28 11 -24 22 7 18 -19 31 -38 19 -24 -15 -91 -14 -114 1 -27 18 -31 18
-39 5z"/>
<path d="M5419 79 c-21 -13 9 -49 40 -49 16 0 31 -7 35 -15 4 -13 35 -15 186
-15 121 0 179 3 175 10 -4 6 -12 10 -18 9 -7 -2 -23 2 -37 8 -72 30 -133 39
-210 29 -19 -2 -41 1 -48 7 -17 13 -108 26 -123 16z"/>
</g>
</svg>
